<svg width="120" height="125" viewBox="0 0 120 125" fill="none" xmlns="http://www.w3.org/2000/svg">
<g id="Frame" clip-path="url(#clip0_14_509)">
<path id="Vector" d="M-27.3421 66.1844C-18.6832 63.1496 -10.0177 60.2216 -1.50071 56.7984C6.87821 53.4067 14.8716 49.1349 22.3466 44.0539C36.5745 34.3454 49.1606 22.1264 64.6827 14.3267C72.4206 10.2331 80.9651 7.88687 89.7212 7.45147C89.8647 7.46164 90.0017 7.5164 90.1131 7.60818C90.2246 7.69996 90.3051 7.82421 90.3432 7.96355C90.3813 8.10288 90.3753 8.25039 90.3259 8.38557C90.2765 8.52076 90.1863 8.63688 90.0678 8.71775L67.4359 19.5709C59.893 23.2064 52.5112 27.0257 44.8792 30.602C43.8079 31.2205 42.769 29.4686 43.9088 28.9212C51.4397 25.2649 59.097 21.9229 66.7051 18.3051L89.3969 7.55573C89.6005 7.90848 89.6187 8.36829 89.7314 8.80127C73.0151 9.15625 58.5026 18.7524 46.0616 29.034C39.2021 34.7096 32.5483 40.5986 25.307 45.8031C18.0929 50.9004 10.3205 55.1558 2.13903 58.4874C-7.30571 62.2966 -16.9677 65.5469 -26.7975 68.2218C-28.0452 68.5825 -28.5178 66.6696 -27.3061 66.2467L-27.3421 66.1844Z" fill="black" fill-opacity="0.1"/>
<path id="Vector_2" d="M-25.6704 65.6066C-11.4788 63.6382 0.525801 53.8853 15.295 54.8205C22.4401 55.5564 29.4711 57.1853 36.2243 59.6692C43.3152 62.0076 50.2675 64.7558 57.0462 67.9001C64.6577 71.5092 72.0614 75.5482 79.2214 79.9977C79.3888 80.0992 79.5195 80.252 79.594 80.4334C79.6684 80.6148 79.6826 80.8151 79.6346 81.0045C79.5865 81.1939 79.4787 81.3623 79.3271 81.4846C79.1756 81.6069 78.9885 81.6767 78.7936 81.6834C71.2078 81.581 63.416 81.5975 56.6071 77.8925C49.7982 74.1875 44.8802 67.62 38.0885 63.8497C37.9051 63.7465 37.7696 63.5746 37.7118 63.3719C37.654 63.1692 37.6787 62.9522 37.7804 62.7688C37.8821 62.5853 38.0525 62.4503 38.2541 62.3936C38.4558 62.3369 38.6721 62.363 38.8555 62.4662C45.3712 66.0915 50.5703 71.5283 56.9658 75.2784C63.3612 79.0284 71.327 79.7415 78.8749 79.9211C78.7284 80.4761 78.5612 81.0429 78.4266 81.6187C72.1919 77.848 65.7294 74.473 59.0775 71.5138C52.329 68.4027 45.4108 65.6812 38.3568 63.3628C31.6363 60.938 24.7081 59.1487 17.6632 58.0183C10.6768 57.2432 3.6173 58.1425 -2.93493 60.6422C-10.291 63.1738 -17.5316 66.5241 -25.3909 66.9946C-26.1561 67.0491 -26.3431 65.7737 -25.5813 65.6659L-25.6704 65.6066Z" fill="black" fill-opacity="0.1"/>
<path id="Vector_3" d="M7.1673 54.5884C13.4136 56.318 19.7804 57.5631 26.2111 58.3124C32.1796 58.8545 38.1902 58.3952 43.9959 56.9532C54.7711 54.3012 64.7862 49.2383 75.5341 46.4914C81.3758 44.8708 87.4863 44.4269 93.5143 45.1853L93.0282 46.9601C77.4771 42.7901 60.9797 44.4454 46.6278 51.6156C42.5519 53.64 38.7319 56.1427 35.2474 59.0715C35.1344 59.1913 34.9969 59.285 34.8441 59.3462C34.6913 59.4075 34.5269 59.4348 34.3622 59.4263C34.1976 59.4177 34.0364 59.3735 33.8899 59.2968C33.7434 59.2201 33.6149 59.1127 33.5133 58.9818C33.4116 58.8508 33.3393 58.6995 33.3012 58.5383C33.263 58.3771 33.26 58.2098 33.2923 58.0477C33.3246 57.8857 33.3915 57.7328 33.4883 57.5995C33.5852 57.4662 33.7097 57.3557 33.8534 57.2755C46.9337 47.1916 63.1791 42.1056 79.7077 42.9198C84.3587 43.1728 88.9738 43.9112 93.4784 45.1231C94.6513 45.4419 94.1345 47.0683 92.9922 46.8978C81.715 45.3023 70.821 49.4615 60.4781 53.3856C50.1351 57.3098 39.2005 61.1605 27.7062 60.1882C20.62 59.3724 13.6161 57.9255 6.77785 55.8646C5.9101 55.6463 6.26361 54.3078 7.13136 54.5261L7.1673 54.5884Z" fill="black" fill-opacity="0.1"/>
<path id="Vector_4" d="M-26.7484 66.1184C-21.8031 64.824 -16.6233 64.671 -11.5965 65.6706C-6.34074 66.5569 -1.16741 67.8928 3.86674 69.6635C15.2405 73.4721 26.8048 77.0875 37.8049 81.9142C43.6264 84.2785 49.0962 87.4433 54.0568 91.3172C54.6189 91.7674 53.8355 92.5516 53.294 92.0896C48.8883 88.6604 44.0183 85.8815 38.8333 83.8381C33.6828 81.721 28.2861 80.2717 23.0169 78.4722L5.87506 72.5711C1.0724 70.8519 -3.82641 69.4211 -8.79523 68.2863C-11.6597 67.6455 -14.574 67.2632 -17.5032 67.1442C-20.4153 67.1316 -23.3217 67.3658 -26.1915 67.8443C-26.4052 67.8751 -26.6233 67.8259 -26.8042 67.7062C-26.9852 67.5865 -27.1165 67.4046 -27.1731 67.1949C-27.2298 66.9853 -27.2078 66.7625 -27.1115 66.5689C-27.0152 66.3754 -26.8512 66.2245 -26.6506 66.1449L-26.7484 66.1184Z" fill="black" fill-opacity="0.1"/>
</g>
<defs>
<clipPath id="clip0_14_509">
<rect width="132.34" height="66.6102" fill="white" transform="matrix(-0.866025 0.5 0.5 0.866025 86.164 0.624023)"/>
</clipPath>
</defs>
</svg>
